<svg xmlns="http://www.w3.org/2000/svg" width="72" height="72" viewBox="0 0 72 72">
  <defs>
    <style>
      .cls-1 {
        fill: #fff;
        fill-rule: evenodd;
      }
    </style>
  </defs>
  <path class="cls-1" d="M986.451,1270.71h2.323v2.32h-2.323v-2.32Zm58.429,36a6.96,6.96,0,0,0,3.12-5.81v-38.32a6.982,6.982,0,0,0-6.97-6.97h-5.8a6.976,6.976,0,0,0-6.97,6.97v15.1h-10.45a3.5,3.5,0,0,0-3.49-3.49h-3.48a3.5,3.5,0,0,0-3.49,3.49H995.742v-15.1a6.978,6.978,0,0,0-6.968-6.97h-5.807a6.978,6.978,0,0,0-6.967,6.97v38.32a6.963,6.963,0,0,0,3.124,5.81H976v2.32h24.39v-2.32h-7.772a6.961,6.961,0,0,0,3.124-5.81v-15.09h11.608a3.491,3.491,0,0,0,3.49,3.48h3.48a3.491,3.491,0,0,0,3.49-3.48h10.45v15.09a6.96,6.96,0,0,0,3.12,5.81H1012v2.32h36v-2.32h-3.12Zm-66.558-44.13a4.647,4.647,0,0,1,4.645-4.64v6.48l-4.645,4.65v-6.49Zm0,9.77,4.645-4.64v9.49l-4.645,4.64v-9.49Zm4.646,33.2a4.656,4.656,0,0,1-4.646-4.65v-3l4.646-4.65v12.3Zm0-15.58-4.646,4.65v-9.49l4.646-4.65v9.49Zm10.451,10.93a4.817,4.817,0,0,1-4.645,4.65v-12.29l4.645,4.64v3Zm0-6.28-4.645-4.65v-9.49l4.645,4.65v9.49Zm0-12.78-4.645-4.64v-1.85h-2.323v30.2H985.29v-47.61h1.161v10.45h2.323v-0.68l4.645,4.64v9.49Zm0-12.77-4.645-4.65v-6.48a4.808,4.808,0,0,1,4.645,4.64v6.49Zm13.931,14.41H995.742V1280h11.608v3.48Zm8.13,2.33a1.161,1.161,0,0,1-1.16,1.16h-3.48a1.161,1.161,0,0,1-1.16-1.16v-8.13a1.161,1.161,0,0,1,1.16-1.16h3.48a1.161,1.161,0,0,1,1.16,1.16v8.13Zm12.78-2.33h-10.45V1280h10.45v3.48Zm17.42,11.14-4.65-4.65v-9.49l4.65,4.65v9.49Zm-4.65-36.68a4.814,4.814,0,0,1,4.65,4.64v6.49l-4.65-4.65v-6.48Zm-10.45,4.64a4.645,4.645,0,0,1,4.65-4.64v6.48l-4.65,4.65v-6.49Zm4.65,42.97a4.654,4.654,0,0,1-4.65-4.65v-3l4.65-4.65v12.3Zm0-15.58-4.65,4.65v-9.49l4.65-4.65v9.49Zm0-12.77-4.65,4.64v-9.49l4.65-4.64v9.49Zm3.48,28.35h-1.16v-47.61h1.16v15.09h2.32v-5.32l4.65,4.64v9.49l-4.65-4.64v-1.85h-2.32v30.2Zm2.32,0v-12.29l4.65,4.64v3A4.823,4.823,0,0,1,1041.03,1305.55Zm-30.19-23.23h2.32v2.33h-2.32v-2.33Zm-23.227,31.36H1048V1316H987.613v-2.32Zm15.1-6.97h2.32v2.32h-2.32v-2.32Zm4.64,0h2.33v2.32h-2.33v-2.32ZM976,1313.68h9.29V1316H976v-2.32Zm1.161-63.87h29.029v2.32H977.161v-2.32Zm16.258-5.81h12.771v2.32H993.419V1244Zm38.321,5.81h15.1v2.32h-15.1v-2.32Zm-9.29-5.81h15.1v2.32h-15.1V1244Zm4.65,5.81h2.32v2.32h-2.32v-2.32Zm-4.65,0h2.32v2.32h-2.32v-2.32Z" transform="translate(-976 -1244)"/>
</svg>
